<svg xmlns="http://www.w3.org/2000/svg" xmlns:xlink="http://www.w3.org/1999/xlink" width="628" zoomAndPan="magnify" viewBox="0 0 470.87997 125.999998" height="168" preserveAspectRatio="xMidYMid meet" version="1.0"><defs><g/><clipPath id="0eba3a2b6e"><path d="M 267.589844 84.316406 L 355.292969 84.316406 L 355.292969 93.867188 L 267.589844 93.867188 Z M 267.589844 84.316406 " clip-rule="nonzero"/></clipPath><clipPath id="a3d9c69a01"><path d="M 366.710938 30.042969 L 454.414062 30.042969 L 454.414062 39.589844 L 366.710938 39.589844 Z M 366.710938 30.042969 " clip-rule="nonzero"/></clipPath></defs><g clip-path="url(#0eba3a2b6e)"><path fill="#ffffff" d="M 267.589844 84.316406 L 355.289062 84.316406 L 355.289062 93.867188 L 267.589844 93.867188 Z M 267.589844 84.316406 " fill-opacity="1" fill-rule="nonzero"/></g><g clip-path="url(#a3d9c69a01)"><path fill="#ffffff" d="M 366.710938 30.042969 L 454.410156 30.042969 L 454.410156 39.589844 L 366.710938 39.589844 Z M 366.710938 30.042969 " fill-opacity="1" fill-rule="nonzero"/></g><g fill="#ffffff" fill-opacity="1"><g transform="translate(97.558045, 67.261462)"><g><path d="M 13.96875 0 L 22.796875 0 L 22.796875 -30.546875 L 35.109375 -30.546875 L 35.109375 -38.8125 L 1.65625 -38.8125 L 1.65625 -30.546875 L 13.96875 -30.546875 Z M 13.96875 0 "/></g></g></g><g fill="#ffffff" fill-opacity="1"><g transform="translate(145.804706, 67.261462)"><g><path d="M 28.671875 0 L 37.484375 0 L 37.484375 -38.8125 L 28.671875 -38.8125 L 28.671875 -23.90625 L 13.46875 -23.90625 L 13.46875 -38.8125 L 4.65625 -38.8125 L 4.65625 0 L 13.46875 0 L 13.46875 -15.640625 L 28.671875 -15.640625 Z M 28.671875 0 "/></g></g></g><g fill="#ffffff" fill-opacity="1"><g transform="translate(199.430466, 67.261462)"><g><path d="M 4.65625 0 L 13.46875 0 L 13.46875 -12.09375 L 19.296875 -12.09375 L 26.234375 0 L 36.4375 0 L 28.390625 -13.46875 C 33.046875 -15.53125 35.765625 -19.734375 35.765625 -25.453125 C 35.765625 -33.71875 30.109375 -38.8125 21.234375 -38.8125 L 4.65625 -38.8125 Z M 13.359375 -19.515625 L 13.359375 -31.28125 L 20.078125 -31.28125 C 24.40625 -31.28125 26.84375 -29.171875 26.84375 -25.390625 C 26.84375 -21.625 24.40625 -19.515625 20.078125 -19.515625 Z M 13.359375 -19.515625 "/></g></g></g><g fill="#ffffff" fill-opacity="1"><g transform="translate(249.950764, 67.261462)"><g><path d="M 4.65625 0 L 13.46875 0 L 13.46875 -38.8125 L 4.65625 -38.8125 Z M 4.65625 0 "/></g></g></g><g fill="#ffffff" fill-opacity="1"><g transform="translate(279.564662, 67.261462)"><g><path d="M 4.65625 0 L 13.46875 0 L 13.46875 -13.359375 L 27.5625 -13.359375 L 27.5625 -21.125 L 13.46875 -21.125 L 13.46875 -30.828125 L 29 -30.828125 L 29 -38.8125 L 4.65625 -38.8125 Z M 4.65625 0 "/></g></g></g><g fill="#ffffff" fill-opacity="1"><g transform="translate(322.487679, 67.261462)"><g><path d="M 13.96875 0 L 22.796875 0 L 22.796875 -30.546875 L 35.109375 -30.546875 L 35.109375 -38.8125 L 1.65625 -38.8125 L 1.65625 -30.546875 L 13.96875 -30.546875 Z M 13.96875 0 "/></g></g></g><g fill="#ffffff" fill-opacity="1"><g transform="translate(381.180557, 93.612863)"><g><path d="M 4.65625 0 L 13.46875 0 L 13.46875 -38.8125 L 4.65625 -38.8125 Z M 4.65625 0 "/></g></g></g><g fill="#ffffff" fill-opacity="1"><g transform="translate(410.794455, 93.612863)"><g><path d="M 13.96875 0 L 22.796875 0 L 22.796875 -30.546875 L 35.109375 -30.546875 L 35.109375 -38.8125 L 1.65625 -38.8125 L 1.65625 -30.546875 L 13.96875 -30.546875 Z M 13.96875 0 "/></g></g></g></svg>