<svg xmlns="http://www.w3.org/2000/svg" xmlns:xlink="http://www.w3.org/1999/xlink" width="500" zoomAndPan="magnify" viewBox="0 0 375 374.999991" height="500" preserveAspectRatio="xMidYMid meet" version="1.0"><defs><g/><clipPath id="e7f85c3e40"><path d="M 7.757812 44.289062 L 143.847656 44.289062 L 143.847656 338.707031 L 7.757812 338.707031 Z M 7.757812 44.289062 " clip-rule="nonzero"/></clipPath></defs><rect x="-37.5" width="450" fill="#ffffff" y="-37.499999" height="449.999989" fill-opacity="1"/><rect x="-37.5" width="450" fill="#000000" y="-37.499999" height="449.999989" fill-opacity="1"/><g fill="#d9d9d9" fill-opacity="1"><g transform="translate(168.128377, 338.646039)"><g><path d="M 9.859375 0 L 9.859375 -282.109375 L 64.375 -282.109375 L 64.375 0 Z M 9.859375 0 "/></g></g></g><g fill="#d9d9d9" fill-opacity="1"><g transform="translate(242.680648, 338.646039)"><g><path d="M 36.78125 0 L 36.78125 -227.921875 L 3.28125 -227.921875 L 3.28125 -282.109375 L 126.765625 -282.109375 L 126.765625 -227.921875 L 93.265625 -227.921875 L 93.265625 0 Z M 36.78125 0 "/></g></g></g><g clip-path="url(#e7f85c3e40)"><path fill="#e6e6dd" d="M 7.757812 44.289062 L 143.847656 44.289062 L 143.847656 338.792969 L 7.757812 338.792969 Z M 7.757812 44.289062 " fill-opacity="1" fill-rule="nonzero"/></g><g fill="#000000" fill-opacity="1"><g transform="translate(118.444718, 318.995201)"><g><path d="M 0 -11.890625 L -73.71875 -11.890625 L -73.71875 -1.0625 L -91.234375 -1.0625 L -91.234375 -41 L -73.71875 -41 L -73.71875 -30.171875 L 0 -30.171875 Z M 0 -11.890625 "/></g></g></g><g fill="#000000" fill-opacity="1"><g transform="translate(118.444718, 276.937382)"><g><path d="M 0 -4.03125 L -91.234375 -4.03125 L -91.234375 -22.203125 L -58.625 -22.203125 L -58.625 -30.796875 L -91.234375 -30.796875 L -91.234375 -48.96875 L 0 -48.96875 L 0 -30.796875 L -41.421875 -30.796875 L -41.421875 -22.203125 L 0 -22.203125 Z M 0 -4.03125 "/></g></g></g><g fill="#000000" fill-opacity="1"><g transform="translate(118.444718, 223.940292)"><g><path d="M -91.234375 -4.03125 L -91.234375 -32.078125 C -91.234375 -36.535156 -90.222656 -39.984375 -88.203125 -42.421875 C -86.191406 -44.867188 -83.363281 -46.515625 -79.71875 -47.359375 C -76.070312 -48.210938 -71.414062 -48.640625 -65.75 -48.640625 C -60.582031 -48.640625 -56.546875 -47.96875 -53.640625 -46.625 C -50.734375 -45.28125 -48.71875 -42.945312 -47.59375 -39.625 C -47.019531 -42.382812 -45.632812 -44.382812 -43.4375 -45.625 C -41.25 -46.863281 -38.273438 -47.484375 -34.515625 -47.484375 L 0 -47.265625 L 0 -29.421875 L -35.6875 -29.421875 C -38.238281 -29.421875 -39.867188 -28.925781 -40.578125 -27.9375 C -41.285156 -26.945312 -41.640625 -25.140625 -41.640625 -22.515625 L 0 -22.515625 L 0 -4.03125 Z M -57.46875 -26.984375 C -57.46875 -29.523438 -60.226562 -30.796875 -65.75 -30.796875 C -68.15625 -30.796875 -69.957031 -30.691406 -71.15625 -30.484375 C -72.363281 -30.273438 -73.195312 -29.882812 -73.65625 -29.3125 C -74.125 -28.75 -74.359375 -27.9375 -74.359375 -26.875 L -74.359375 -22.625 L -57.46875 -22.625 Z M -57.46875 -26.984375 "/></g></g></g><g fill="#000000" fill-opacity="1"><g transform="translate(118.444718, 173.27975)"><g><path d="M 0 -3.1875 L -91.234375 -3.1875 L -91.234375 -20.8125 L 0 -20.8125 Z M 0 -3.1875 "/></g></g></g><g fill="#000000" fill-opacity="1"><g transform="translate(118.444718, 149.170844)"><g><path d="M 0 -4.03125 L -91.234375 -4.03125 L -91.234375 -40.578125 L -73.5 -40.578125 L -73.5 -22.40625 L -58.953125 -22.40625 L -58.953125 -39.625 L -41.421875 -39.625 L -41.421875 -22.40625 L 0 -22.40625 Z M 0 -4.03125 "/></g></g></g><g fill="#000000" fill-opacity="1"><g transform="translate(118.444718, 106.794397)"><g><path d="M 0 -11.890625 L -73.71875 -11.890625 L -73.71875 -1.0625 L -91.234375 -1.0625 L -91.234375 -41 L -73.71875 -41 L -73.71875 -30.171875 L 0 -30.171875 Z M 0 -11.890625 "/></g></g></g></svg>